<?xml version="1.0" encoding="UTF-8" standalone="no"?>
<svg
   xmlns:dc="http://purl.org/dc/elements/1.1/"
   xmlns:cc="http://creativecommons.org/ns#"
   xmlns:rdf="http://www.w3.org/1999/02/22-rdf-syntax-ns#"
   xmlns:svg="http://www.w3.org/2000/svg"
   xmlns="http://www.w3.org/2000/svg"
   xmlns:sodipodi="http://sodipodi.sourceforge.net/DTD/sodipodi-0.dtd"
   xmlns:inkscape="http://www.inkscape.org/namespaces/inkscape"
   inkscape:version="1.0 (4035a4fb49, 2020-05-01)"
   sodipodi:docname="posts.svg"
   xml:space="preserve"
   viewBox="0 0 32 32"
   version="1.1"
   style="enable-background:new 0 0 32 32;"
   id="Icons"><metadata
     id="metadata11"><rdf:RDF><cc:Work
         rdf:about=""><dc:format>image/svg+xml</dc:format><dc:type
           rdf:resource="http://purl.org/dc/dcmitype/StillImage" /></cc:Work></rdf:RDF></metadata><defs
     id="defs9" /><sodipodi:namedview
     inkscape:current-layer="Icons"
     inkscape:window-maximized="1"
     inkscape:window-y="-9"
     inkscape:window-x="-9"
     inkscape:cy="16"
     inkscape:cx="16"
     inkscape:zoom="25.9375"
     showgrid="false"
     id="namedview7"
     inkscape:window-height="1001"
     inkscape:window-width="1920"
     inkscape:pageshadow="2"
     inkscape:pageopacity="0"
     guidetolerance="10"
     gridtolerance="10"
     objecttolerance="10"
     borderopacity="1"
     bordercolor="#666666"
     pagecolor="#ffffff" /><style
     id="style2"
     type="text/css">
	.st0{fill:none;stroke:#000000;stroke-width:2;stroke-linecap:round;stroke-linejoin:round;stroke-miterlimit:10;}
</style><path
     style="fill:#777;fill-opacity:1"
     id="path4"
     d="M29,15c0.6,0,1-0.4,1-1s-0.4-1-1-1h-3v-2h3c0.6,0,1-0.4,1-1s-0.4-1-1-1h-3c0-1.7-1.3-3-3-3V3c0-0.6-0.4-1-1-1s-1,0.4-1,1v3  h-2V3c0-0.6-0.4-1-1-1s-1,0.4-1,1v3h-2V3c0-0.6-0.4-1-1-1s-1,0.4-1,1v3h-2V3c0-0.6-0.4-1-1-1S9,2.4,9,3v3C7.3,6,6,7.3,6,9H3  c-0.6,0-1,0.4-1,1s0.4,1,1,1h3v2H3c-0.6,0-1,0.4-1,1s0.4,1,1,1h3v2H3c-0.6,0-1,0.4-1,1s0.4,1,1,1h3v2H3c-0.6,0-1,0.4-1,1s0.4,1,1,1  h3c0,1.7,1.3,3,3,3v3c0,0.6,0.4,1,1,1s1-0.4,1-1v-3h2v3c0,0.6,0.4,1,1,1s1-0.4,1-1v-3h2v3c0,0.6,0.4,1,1,1s1-0.4,1-1v-3h2v3  c0,0.6,0.4,1,1,1s1-0.4,1-1v-3c1.7,0,3-1.3,3-3h3c0.6,0,1-0.4,1-1s-0.4-1-1-1h-3v-2h3c0.6,0,1-0.4,1-1s-0.4-1-1-1h-3v-2H29z M22,19  c0,1.7-1.3,3-3,3h-6c-1.7,0-3-1.3-3-3v-6c0-1.7,1.3-3,3-3h6c1.7,0,3,1.3,3,3V19z" /></svg>
