<?xml version="1.0" encoding="UTF-8" standalone="no"?>
<svg
   xmlns:dc="http://purl.org/dc/elements/1.1/"
   xmlns:cc="http://creativecommons.org/ns#"
   xmlns:rdf="http://www.w3.org/1999/02/22-rdf-syntax-ns#"
   xmlns:svg="http://www.w3.org/2000/svg"
   xmlns="http://www.w3.org/2000/svg"
   xmlns:sodipodi="http://sodipodi.sourceforge.net/DTD/sodipodi-0.dtd"
   xmlns:inkscape="http://www.inkscape.org/namespaces/inkscape"
   inkscape:version="1.0 (4035a4fb49, 2020-05-01)"
   sodipodi:docname="icon-user.svg"
   version="1.1"
   viewBox="0 0 256 256"
   id="Flat">
  <metadata
     id="metadata9">
    <rdf:RDF>
      <cc:Work
         rdf:about="">
        <dc:format>image/svg+xml</dc:format>
        <dc:type
           rdf:resource="http://purl.org/dc/dcmitype/StillImage" />
      </cc:Work>
    </rdf:RDF>
  </metadata>
  <defs
     id="defs7" />
  <sodipodi:namedview
     inkscape:current-layer="Flat"
     inkscape:window-maximized="1"
     inkscape:window-y="-9"
     inkscape:window-x="-9"
     inkscape:cy="128"
     inkscape:cx="128"
     inkscape:zoom="3.2421875"
     showgrid="false"
     id="namedview5"
     inkscape:window-height="1001"
     inkscape:window-width="1920"
     inkscape:pageshadow="2"
     inkscape:pageopacity="0"
     guidetolerance="10"
     gridtolerance="10"
     objecttolerance="10"
     borderopacity="1"
     bordercolor="#666666"
     pagecolor="#ffffff" />
  <path
     style="fill:#ffffff;fill-opacity:1;stroke-width:0.667842"
     id="path2"
     d="m 154.30064,125.12476 a 29.384986,29.384986 0 1 1 -29.38498,-29.385002 29.41823,29.41823 0 0 1 29.38498,29.385002 z m 40.07044,5.34272 a 69.455421,69.455421 0 1 1 -69.45542,-69.455432 69.534166,69.534166 0 0 1 69.45542,69.455432 z m -10.68545,0 a 58.769972,58.769972 0 1 0 -102.686029,39.00868 53.230101,53.230101 0 0 1 16.316109,-15.34338 39.961183,39.961183 0 0 0 55.1999,0 53.228671,53.228671 0 0 1 16.31596,15.34338 58.527031,58.527031 0 0 0 14.85406,-39.00868 z" />
</svg>
