<?xml version="1.0" encoding="UTF-8" standalone="no"?>
<svg
   xmlns:dc="http://purl.org/dc/elements/1.1/"
   xmlns:cc="http://creativecommons.org/ns#"
   xmlns:rdf="http://www.w3.org/1999/02/22-rdf-syntax-ns#"
   xmlns:svg="http://www.w3.org/2000/svg"
   xmlns="http://www.w3.org/2000/svg"
   xmlns:sodipodi="http://sodipodi.sourceforge.net/DTD/sodipodi-0.dtd"
   xmlns:inkscape="http://www.inkscape.org/namespaces/inkscape"
   inkscape:version="1.0 (4035a4fb49, 2020-05-01)"
   sodipodi:docname="icon-running.svg"
   xml:space="preserve"
   viewBox="0 0 32 32"
   version="1.1"
   style="enable-background:new 0 0 32 32;"
   id="Icons"><metadata
     id="metadata11"><rdf:RDF><cc:Work
         rdf:about=""><dc:format>image/svg+xml</dc:format><dc:type
           rdf:resource="http://purl.org/dc/dcmitype/StillImage" /></cc:Work></rdf:RDF></metadata><defs
     id="defs9" /><sodipodi:namedview
     inkscape:current-layer="Icons"
     inkscape:window-maximized="1"
     inkscape:window-y="-9"
     inkscape:window-x="-9"
     inkscape:cy="17.049036"
     inkscape:cx="8.7830956"
     inkscape:zoom="12.96875"
     showgrid="false"
     id="namedview7"
     inkscape:window-height="1001"
     inkscape:window-width="1920"
     inkscape:pageshadow="2"
     inkscape:pageopacity="0"
     guidetolerance="10"
     gridtolerance="10"
     objecttolerance="10"
     borderopacity="1"
     bordercolor="#666666"
     pagecolor="#ffffff" /><style
     id="style2"
     type="text/css">
	.st0{fill:none;stroke:#000000;stroke-width:2;stroke-linecap:round;stroke-linejoin:round;stroke-miterlimit:10;}
</style><path
     style="fill:#ffffff;fill-opacity:1;stroke-width:1.14819"
     id="path4"
     d="M 32.332773,27.168451 30.03641,21.427548 C 29.921593,20.968275 29.46232,20.738639 29.003049,20.738639 V 6.9604692 c 0,-0.6889084 -0.459272,-1.1481807 -1.148182,-1.1481807 H 4.8912528 c -0.6889085,0 -1.1481808,0.4592723 -1.1481808,1.1481807 V 20.738639 c -0.4592723,0 -0.9185446,0.229636 -1.0333626,0.688909 l -2.29636163,5.740903 c -0.11481802,0.344454 -0.11481802,0.803727 0.11481803,1.033362 0.22963625,0.229637 0.5740905,0.574091 0.9185447,0.574091 H 31.29941 c 0.344454,0 0.688908,-0.229636 0.918545,-0.459273 0.229635,-0.229635 0.344454,-0.803726 0.114818,-1.14818 z M 6.0394335,8.10865 H 26.706687 V 20.738639 H 6.0394335 Z" /></svg>
