<?xml version="1.0" encoding="UTF-8" standalone="no"?>
<svg
   xmlns:dc="http://purl.org/dc/elements/1.1/"
   xmlns:cc="http://creativecommons.org/ns#"
   xmlns:rdf="http://www.w3.org/1999/02/22-rdf-syntax-ns#"
   xmlns:svg="http://www.w3.org/2000/svg"
   xmlns="http://www.w3.org/2000/svg"
   xmlns:sodipodi="http://sodipodi.sourceforge.net/DTD/sodipodi-0.dtd"
   xmlns:inkscape="http://www.inkscape.org/namespaces/inkscape"
   inkscape:version="1.0 (4035a4fb49, 2020-05-01)"
   sodipodi:docname="icon-language.svg"
   id="svg4"
   version="1.1"
   viewBox="0 0 24 24"
   height="24"
   width="24">
  <metadata
     id="metadata10">
    <rdf:RDF>
      <cc:Work
         rdf:about="">
        <dc:format>image/svg+xml</dc:format>
        <dc:type
           rdf:resource="http://purl.org/dc/dcmitype/StillImage" />
      </cc:Work>
    </rdf:RDF>
  </metadata>
  <defs
     id="defs8" />
  <sodipodi:namedview
     inkscape:current-layer="svg4"
     inkscape:window-maximized="1"
     inkscape:window-y="-9"
     inkscape:window-x="-9"
     inkscape:cy="17.74787"
     inkscape:cx="9.2440161"
     inkscape:zoom="12.227055"
     showgrid="false"
     id="namedview6"
     inkscape:window-height="1001"
     inkscape:window-width="1920"
     inkscape:pageshadow="2"
     inkscape:pageopacity="0"
     guidetolerance="10"
     gridtolerance="10"
     objecttolerance="10"
     borderopacity="1"
     bordercolor="#666666"
     pagecolor="#ffffff" />
  <path
     style="fill:#777777;fill-opacity:1;stroke-width:0.685125"
     id="path2"
     d="m 12.442971,5.189648 c -3.7818873,0 -6.8443939,3.0693578 -6.8443939,6.851245 0,3.781887 3.0625066,6.851245 6.8443939,6.851245 3.788738,0 6.858096,-3.069358 6.858096,-6.851245 0,-3.7818872 -3.069358,-6.851245 -6.858096,-6.851245 z m 4.747913,4.110747 H 15.169766 C 14.950526,8.4439893 14.635369,7.62184 14.224294,6.8613518 c 1.26063,0.4316284 2.30887,1.3085878 2.96659,2.4390432 z M 12.449822,6.587302 c 0.568653,0.8221494 1.013984,1.7333649 1.308588,2.713093 h -2.617176 c 0.294603,-0.9797281 0.739935,-1.8909436 1.308588,-2.713093 z m -5.3028635,6.82384 C 7.0373386,12.972663 6.9688261,12.513629 6.9688261,12.040893 c 0,-0.472736 0.068512,-0.931769 0.1781324,-1.370249 h 2.3157208 c -0.05481,0.452182 -0.095917,0.904365 -0.095917,1.370249 0,0.465884 0.041108,0.918066 0.095917,1.370249 z m 0.5618021,1.370249 H 9.7298778 C 9.9491177,15.637796 10.264275,16.459946 10.67535,17.220434 9.4147205,16.788806 8.3664801,15.918697 7.7087606,14.781391 Z M 9.7298778,9.300395 H 7.7087606 C 8.3664801,8.1630883 9.4147205,7.2929802 10.67535,6.8613518 10.264275,7.62184 9.9491177,8.4439893 9.7298778,9.300395 Z m 2.7199442,8.194089 c -0.568653,-0.822149 -1.013985,-1.733365 -1.308588,-2.713093 h 2.617176 c -0.294604,0.979728 -0.739935,1.890944 -1.308588,2.713093 z m 1.603191,-4.083342 H 10.84663 c -0.06166,-0.452183 -0.109619,-0.904365 -0.109619,-1.370249 0,-0.465884 0.04796,-0.924918 0.109619,-1.370249 h 3.206383 c 0.06166,0.445331 0.109621,0.904365 0.109621,1.370249 0,0.465884 -0.04796,0.918066 -0.109621,1.370249 z m 0.171281,3.809292 c 0.411075,-0.760488 0.726232,-1.582638 0.945472,-2.439043 h 2.021118 c -0.65772,1.130456 -1.70596,2.007415 -2.96659,2.439043 z m 1.21267,-3.809292 c 0.05481,-0.452183 0.09592,-0.904365 0.09592,-1.370249 0,-0.465884 -0.04111,-0.918067 -0.09592,-1.370249 h 2.315721 c 0.10962,0.43848 0.178133,0.897513 0.178133,1.370249 0,0.472736 -0.06852,0.93177 -0.178133,1.370249 z" />
</svg>
