<?xml version="1.0" encoding="UTF-8" standalone="no"?>
<svg
   xmlns:dc="http://purl.org/dc/elements/1.1/"
   xmlns:cc="http://creativecommons.org/ns#"
   xmlns:rdf="http://www.w3.org/1999/02/22-rdf-syntax-ns#"
   xmlns:svg="http://www.w3.org/2000/svg"
   xmlns="http://www.w3.org/2000/svg"
   xmlns:sodipodi="http://sodipodi.sourceforge.net/DTD/sodipodi-0.dtd"
   xmlns:inkscape="http://www.inkscape.org/namespaces/inkscape"
   inkscape:version="1.0 (4035a4fb49, 2020-05-01)"
   sodipodi:docname="icon-ezalib.svg"
   viewBox="0 0 24 24"
   height="24"
   width="24"
   id="mdi-brain"
   version="1.1">
  <metadata
     id="metadata9">
    <rdf:RDF>
      <cc:Work
         rdf:about="">
        <dc:format>image/svg+xml</dc:format>
        <dc:type
           rdf:resource="http://purl.org/dc/dcmitype/StillImage" />
      </cc:Work>
    </rdf:RDF>
  </metadata>
  <defs
     id="defs7" />
  <sodipodi:namedview
     inkscape:current-layer="mdi-brain"
     inkscape:window-maximized="1"
     inkscape:window-y="-9"
     inkscape:window-x="-9"
     inkscape:cy="10.364586"
     inkscape:cx="4.8934814"
     inkscape:zoom="17.291667"
     showgrid="false"
     id="namedview5"
     inkscape:window-height="1001"
     inkscape:window-width="1920"
     inkscape:pageshadow="2"
     inkscape:pageopacity="0"
     guidetolerance="10"
     gridtolerance="10"
     objecttolerance="10"
     borderopacity="1"
     bordercolor="#666666"
     pagecolor="#ffffff" />
  <path
     style="stroke-width:1.1171;fill:#ffffff;fill-opacity:1"
     id="path2"
     d="m 22.769874,13.854702 c 0.100542,1.731505 -0.692601,3.395983 -2.111318,4.412545 l 0.860166,1.664478 c 0.256933,0.502695 0.290447,1.094757 0.06703,1.619795 -0.212249,0.525037 -0.647918,0.938363 -1.184126,1.1171 l -0.882509,0.279275 c -0.189908,0.06702 -0.402157,0.100542 -0.603234,0.100542 -0.569721,0 -1.105928,-0.256933 -1.474572,-0.714945 l -2.368252,-2.792749 c -0.994218,-0.167565 -1.932582,-0.592063 -2.725723,-1.228809 -0.55855,0.167565 -1.1171,0.256933 -1.675649,0.256933 -0.9830482,0 -1.9660963,-0.301617 -2.7927502,-0.88251 C 7.286876,17.865094 6.683642,17.943291 6.0692372,17.93212 5.1867232,17.943288 4.3153853,17.764552 3.4999025,17.429422 1.9024497,16.714477 0.84120497,15.150538 0.78534995,13.396692 0.69598201,12.592379 0.83003397,11.776897 1.1763349,11.03961 0.85237598,10.201786 0.81886296,9.2857639 1.0981379,8.4367681 1.5114648,7.3755233 2.2934347,6.4930145 3.2653115,5.9344645 3.9132294,4.0465658 5.7341021,2.7842431 7.7337108,2.918295 9.5210706,1.2426453 12.257965,1.0639094 14.246402,2.5049681 c 0.469183,-0.122881 0.960707,-0.1899069 1.452231,-0.1899069 1.519255,-0.033513 2.960314,0.6367469 3.909848,1.8320437 2.278884,0.5920628 3.90985,2.6251845 3.999218,4.9934361 0.05585,1.23998 -0.279275,2.45762 -0.960706,3.496523 0.0782,0.402155 0.122881,0.804311 0.122881,1.217638 m -5.585499,-1.575111 c 0.636747,0.0782 1.139442,0.55855 1.139442,1.195297 a 1.1170998,1.1170998 0 0 1 -1.1171,1.1171 h -0.703773 c -0.357472,1.00539 -0.983048,1.887899 -1.809702,2.558158 0.279275,0.100542 0.569722,0.156394 0.860167,0.234592 5.730722,-0.0782 5.060463,-3.57472 5.060463,-3.630575 -0.06703,-1.597452 -1.407546,-2.848604 -3.004999,-2.781579 a 1.1170998,1.1170998 0 0 1 -1.1171,-1.1170992 1.1170998,1.1170998 0 0 1 1.1171,-1.1170997 c 1.374033,0.033513 2.69221,0.5473788 3.719942,1.4522299 0.05585,-0.323959 0.08937,-0.6590891 0.08937,-0.994219 C 21.351157,7.8111922 20.725582,6.6047244 18.212107,6.3701335 16.815732,3.063518 13.296868,4.8955617 13.296868,5.9232935 v 0 c -0.03351,0.256933 0.234591,0.8043119 0.279275,0.8378249 a 1.1170998,1.1170998 0 0 1 1.117099,1.1170998 c 0,0.6144049 -0.502695,1.1170998 -1.117099,1.1170998 v 0 C 12.98408,8.972976 12.42553,8.7495561 11.97869,8.3697421 11.442482,8.7160431 10.828077,8.928292 10.19133,8.995318 v 0 C 9.5545832,9.051173 9.0295465,8.604333 8.9960335,7.9899282 8.9066656,7.3643523 9.3646768,6.8169734 9.979081,6.7611184 c 0.178736,-0.022342 1.050074,-0.156394 1.050074,-0.8601669 v 0 c 0,-0.7372858 0.279275,-1.4410587 0.759628,-1.9996086 C 10.761051,3.6220679 9.6551221,3.9907109 8.5380226,5.3424017 6.4825589,5.0184427 5.6447341,5.2977177 5.0303292,7.4760623 3.9690844,8.0010992 3.4105345,8.3697421 3.1647725,9.4868419 4.3712403,9.24108 5.6112211,9.341619 6.7618339,9.7661168 7.3203838,9.978366 7.6331718,10.603941 7.4209228,11.207176 7.2086738,11.788067 6.560756,12.078514 5.979864,11.866265 5.1643812,11.508793 4.2483594,11.486451 3.4105345,11.799238 c -0.3574719,0.301618 -0.3574719,0.927193 -0.3574719,1.418717 0,0.826655 0.4133269,1.597453 1.1170998,2.044293 0.5920629,0.301617 1.2511518,0.458011 1.9102407,0.44684 -0.167565,-0.290446 -0.312788,-0.592063 -0.435669,-0.904851 -0.2122489,-0.603234 0.11171,-1.262323 0.7149439,-1.474572 0.6032338,-0.212248 1.2623228,0.11171 1.4745717,0.714945 0.44684,1.273493 1.5862821,2.144831 2.9268013,2.290054 1.530427,-0.0782 2.893288,-0.983049 3.563549,-2.379423 0.256932,-1.541597 1.496913,-1.67565 2.859775,-1.67565 m 2.2342,8.344736 -0.692602,-1.452229 -0.793141,0.178735 1.1171,1.396375 0.368643,-0.122881 M 14.224061,11.006098 C 14.246401,10.414035 13.799563,9.9113398 13.2075,9.8554848 12.414359,9.810801 11.64356,10.078905 11.051498,10.603941 10.41475,11.251859 10.079621,12.14554 10.113133,13.05039 a 1.1170998,1.1170998 0 0 0 1.1171,1.1171 c 0.636746,0 1.1171,-0.502694 1.1171,-1.1171 0,-0.301616 0.0782,-0.603234 0.256933,-0.848995 0.134051,-0.11171 0.301617,-0.167565 0.480353,-0.167565 0.614405,0.03351 1.139442,-0.424498 1.139442,-1.027732 z" />
</svg>
