<?xml version="1.0" encoding="UTF-8" standalone="no"?>
<svg
   xmlns:dc="http://purl.org/dc/elements/1.1/"
   xmlns:cc="http://creativecommons.org/ns#"
   xmlns:rdf="http://www.w3.org/1999/02/22-rdf-syntax-ns#"
   xmlns:svg="http://www.w3.org/2000/svg"
   xmlns="http://www.w3.org/2000/svg"
   xmlns:sodipodi="http://sodipodi.sourceforge.net/DTD/sodipodi-0.dtd"
   xmlns:inkscape="http://www.inkscape.org/namespaces/inkscape"
   version="1.1"
   id="Capa_1"
   x="0px"
   y="0px"
   viewBox="0 0 212.982 212.982"
   style="enable-background:new 0 0 212.982 212.982;"
   xml:space="preserve"
   sodipodi:docname="close.svg"
   inkscape:version="1.0 (4035a4fb49, 2020-05-01)"><metadata
   id="metadata40"><rdf:RDF><cc:Work
       rdf:about=""><dc:format>image/svg+xml</dc:format><dc:type
         rdf:resource="http://purl.org/dc/dcmitype/StillImage" /></cc:Work></rdf:RDF></metadata><defs
   id="defs38" /><sodipodi:namedview
   inkscape:document-rotation="0"
   pagecolor="#ffffff"
   bordercolor="#666666"
   borderopacity="1"
   objecttolerance="10"
   gridtolerance="10"
   guidetolerance="10"
   inkscape:pageopacity="0"
   inkscape:pageshadow="2"
   inkscape:window-width="1920"
   inkscape:window-height="1001"
   id="namedview36"
   showgrid="false"
   inkscape:zoom="3.897043"
   inkscape:cx="106.491"
   inkscape:cy="116.75519"
   inkscape:window-x="-9"
   inkscape:window-y="-9"
   inkscape:window-maximized="1"
   inkscape:current-layer="Capa_1" />
<g
   id="Close"
   transform="matrix(0.42860884,0,0,0.42226704,59.019251,59.329768)"
   style="fill:#777;fill-opacity:1">
	<path
   style="clip-rule:evenodd;fill:#777;fill-opacity:1"
   d="M 131.804,106.491 207.74,30.555 c 6.99,-6.99 6.99,-18.323 0,-25.312 -6.99,-6.99 -18.322,-6.99 -25.312,0 L 106.491,81.18 30.554,5.242 c -6.99,-6.99 -18.322,-6.99 -25.312,0 -6.989,6.99 -6.989,18.323 0,25.312 L 81.179,106.49 5.242,182.427 c -6.989,6.99 -6.989,18.323 0,25.312 6.99,6.99 18.322,6.99 25.312,0 l 75.937,-75.937 75.937,75.937 c 6.989,6.99 18.322,6.99 25.312,0 6.99,-6.99 6.99,-18.322 0,-25.312 z"
   id="path2" />
</g>
<g
   id="g5">
</g>
<g
   id="g7">
</g>
<g
   id="g9">
</g>
<g
   id="g11">
</g>
<g
   id="g13">
</g>
<g
   id="g15">
</g>
<g
   id="g17">
</g>
<g
   id="g19">
</g>
<g
   id="g21">
</g>
<g
   id="g23">
</g>
<g
   id="g25">
</g>
<g
   id="g27">
</g>
<g
   id="g29">
</g>
<g
   id="g31">
</g>
<g
   id="g33">
</g>
</svg>
